<svg id="Layer_1" data-name="Layer 1" xmlns="http://www.w3.org/2000/svg" viewBox="0 0 40 40">
	<defs>
		<style>
			.cls-1,.cls-2{fill:#db0032;}.cls-1,.cls-3{stroke:#db0032;stroke-miterlimit:10;stroke-width:0.75px;}.cls-3{fill:none;}
		</style>
	</defs>
	<title>
		BumbuFan
	</title>
	<circle class="cls-1" cx="19.97" cy="32.36" r="1.14" />
	<path class="cls-2" d="M34.63,18.58l-1.05,1.06-.06-.06a25.51,25.51,0,0,0-4.72-3.44l.72-1.4a27.08,27.08,0,0,1,5,3.73Z" />
	<path class="cls-2" d="M29.52,14.74l-.72,1.4a17.6,17.6,0,0,0-5.86-2.07l.25-1.62A18.53,18.53,0,0,1,29.52,14.74Z" />
	<path class="cls-2" d="M26.21,27.13l-.87.88-.12-.12a7.43,7.43,0,0,0-1.66-1.48l.62-1.23a10.22,10.22,0,0,1,2,1.9Z" />
	<path class="cls-2" d="M24.18,25.18l-.62,1.23a5.41,5.41,0,0,0-2.37-.85l.24-1.6A6.58,6.58,0,0,1,24.18,25.18Z" />
	<path class="cls-2" d="M23.19,12.45l-.25,1.62a15.36,15.36,0,0,0-6.26.36l-.3-1.69A16.88,16.88,0,0,1,23.19,12.45Z" />
	<path class="cls-2" d="M21.43,24l-.24,1.6a6,6,0,0,0-2.49.26l-.3-1.69A6.52,6.52,0,0,1,21.43,24Z" />
	<path class="cls-2" d="M18.4,24.13l.3,1.69a9.33,9.33,0,0,0-2.22,1.05l-.78-1.44A10,10,0,0,1,18.4,24.13Z" />
	<path class="cls-2" d="M16.38,12.74l.3,1.69A18.54,18.54,0,0,0,11.14,17l-.86-1.61A21.34,21.34,0,0,1,16.38,12.74Z" />
	<path class="cls-2" d="M15.7,25.43l.78,1.44a11.16,11.16,0,0,0-1.69,1.32l-.16.17L13.52,27.3l.11-.12A11.89,11.89,0,0,1,15.7,25.43Z" />
	<path class="cls-2" d="M10.28,15.36,11.14,17A21.12,21.12,0,0,0,6.9,20.64l-.18.2L5.27,19.47l.21-.21A23.51,23.51,0,0,1,10.28,15.36Z" />
	<polyline class="cls-3" points="19.57 33.05 19.53 33.02 14.63 28.36 13.52 27.3 6.71 20.84 5.28 19.48 2.45 16.79 0.96 15.37" />
	<polyline class="cls-3" points="7.51 10.22 8.61 12.26 10.28 15.36 11.14 16.97 15.7 25.43 16.48 26.87 19.7 32.85" />
	<polyline class="cls-3" points="32.45 9 31.3 11.25 29.52 14.74 28.8 16.14 24.18 25.18 23.56 26.41 20.27 32.84 20.25 32.89" />
	<polyline class="cls-3" points="24.09 6.5 23.71 9.01 23.19 12.45 22.94 14.07 21.43 23.96 21.19 25.56 20.09 32.74" />
	<polyline class="cls-3" points="15.35 6.93 15.73 9.08 16.38 12.74 16.68 14.43 18.4 24.13 18.7 25.82 19.93 32.77 19.93 32.8" />
	<path class="cls-3" d="M2.53,16.71s3.74,0,6.08-4.45a.93.93,0,0,0,.05-.1s3.93,1.1,7-3.11l0,0a7.2,7.2,0,0,0,8-.09l0,0a7.24,7.24,0,0,0,7.57,2.18l0,.06c.15.56,1.53,5.08,6.09,4.51l.2,0" />
	<path class="cls-3" d="M5.48,19.26a23.51,23.51,0,0,1,4.8-3.9,21.34,21.34,0,0,1,6.1-2.62,16.88,16.88,0,0,1,6.81-.29,18.53,18.53,0,0,1,6.33,2.29,27.08,27.08,0,0,1,5,3.73" />
	<path class="cls-3" d="M6.9,20.64A21.12,21.12,0,0,1,11.14,17a18.54,18.54,0,0,1,5.54-2.54,15.36,15.36,0,0,1,6.26-.36,17.6,17.6,0,0,1,5.86,2.07,25.51,25.51,0,0,1,4.72,3.44" />
	<path class="cls-3" d="M13.63,27.18a11.89,11.89,0,0,1,2.07-1.75,10,10,0,0,1,2.7-1.3,6.44,6.44,0,0,1,5.78,1.05,10.22,10.22,0,0,1,2,1.9" />
	<path class="cls-3" d="M14.79,28.19a11.16,11.16,0,0,1,1.69-1.32,9.33,9.33,0,0,1,2.22-1.05,6,6,0,0,1,2.49-.26,5.41,5.41,0,0,1,2.37.85,7.43,7.43,0,0,1,1.66,1.48" />
	<polyline class="cls-3" points="39.04 14.09 37.39 15.76 34.63 18.58 33.58 19.64 26.21 27.14 25.34 28.01 20.43 33" />
</svg>
